<svg viewBox="0 0 1024 1024" class="icon" version="1.1" xmlns="http://www.w3.org/2000/svg" fill="#000000"><g id="SVGRepo_bgCarrier" stroke-width="0"></g><g id="SVGRepo_tracerCarrier" stroke-linecap="round" stroke-linejoin="round"></g><g id="SVGRepo_iconCarrier"><path d="M716.8 179.2a51.2 51.2 0 0 1 51.2 51.2v281.6h-51.2V230.4H256v563.2h281.6v51.2H256a51.2 51.2 0 0 1-51.2-51.2V230.4a51.2 51.2 0 0 1 51.2-51.2z" fill="#ffcc00"></path><path d="M586.112 472.3968h-233.3696a19.9424 19.9424 0 0 1 0-39.8848h233.3696a19.9424 19.9424 0 1 1 0 39.8848z m0 105.088h-233.3696a19.9424 19.9424 0 0 1 0-39.8848h233.3696a19.9424 19.9424 0 1 1 0 39.8848z m-76.8 102.4h-156.5696a19.9424 19.9424 0 0 1 0-39.8848h156.5696a19.9424 19.9424 0 1 1 0 39.8848z m-76.8-307.2h-79.7696a19.9424 19.9424 0 0 1 0-39.8848h79.7696a19.9424 19.9424 0 1 1 0 39.8848z" fill="#102a83"></path><path d="M775.168 585.3696c16.64 14.7968 24.0384 33.28 24.0384 57.2928 0 20.3264-5.5552 36.9664-14.7968 49.92-3.6864 5.5296-14.7712 14.7712-35.0976 31.3856-7.424 7.424-12.9536 12.9536-16.64 20.3264-3.6864 7.424-7.3984 16.64-7.3984 27.7248v7.3984H680.96v-7.3984c0-14.7712 1.8432-27.7248 7.3984-38.8096 5.5296-11.0848 20.3264-27.7248 46.1824-49.8944l7.3984-7.3984c7.3984-9.216 11.0848-18.4576 11.0848-29.568 0-12.928-3.6864-24.0128-11.0848-33.2544-7.3984-7.3984-20.3264-12.928-33.28-12.928-18.4576 0-31.4112 5.5296-40.6528 16.64-7.3728 9.216-11.0848 24.0128-11.0848 42.496H614.4c0-29.568 9.216-53.6064 25.856-70.2208C656.896 572.416 680.96 563.2 710.528 563.2c27.7248 0 48.0512 7.3984 64.6656 22.1696zM725.2736 808.96c5.5552 5.5808 9.2416 12.9536 9.2416 20.352 0 9.216-3.6864 14.7968-9.216 20.3264-5.5552 5.5552-12.9536 7.3984-22.1952 7.3984-9.216 0-14.7712-3.712-20.3264-9.2416-5.5552-5.5552-9.2416-12.928-9.2416-20.3264 0-9.2416 3.6864-14.7968 9.216-20.3264 5.5808-5.5552 12.9536-7.3984 20.352-7.3984 9.216 1.8432 16.64 3.6864 22.1696 9.216z" fill="#102a83"></path></g></svg>